<svg fill="#151b36" width="90" height="130" viewBox="0 0 90 130" xmlns="http://www.w3.org/2000/svg">
<path fill-rule="evenodd" clip-rule="evenodd" d="M69 50V30C69 16.7452 58.2548 6 45 6C31.7452 6 21 16.7452 21 30V50H69ZM15 50H10C4.47715 50 0 54.4772 0 60V120C0 125.523 4.47715 130 10 130H80C85.5229 130 90 125.523 90 120V60C90 54.4772 85.5229 50 80 50H75V30C75 13.4315 61.5685 0 45 0C28.4315 0 15 13.4315 15 30V50ZM50 99.6622C52.989 97.9331 55 94.7014 55 91C55 85.4771 50.5228 81 45 81C39.4772 81 35 85.4771 35 91C35 94.7014 37.011 97.9331 40 99.6622V107C40 109.761 42.2386 112 45 112C47.7614 112 50 109.761 50 107V99.6622Z"/>
</svg>
