<svg fill="#151b36" width="130" height="90" viewBox="0 0 130 90" xmlns="http://www.w3.org/2000/svg">
<path fill-rule="evenodd" clip-rule="evenodd" d="M124.473 1.05369C123.127 0.379456 121.608 0 120 0H10C8.28922 0 6.67877 0.429604 5.27066 1.18681L64.7925 51.1315L124.473 1.05369ZM63.2006 57.5078C62.9802 57.4015 62.7694 57.2664 62.5734 57.102L48.7342 45.4895L5.36201 88.8617C6.74826 89.5887 8.3261 90 10 90H120C121.669 90 123.242 89.5912 124.626 88.8682L81.0662 45.3087L66.7774 57.2984C65.7375 58.171 64.2793 58.2175 63.2006 57.5078ZM85.68 41.4373L128.868 84.6255C129.591 83.2423 130 81.6689 130 80V10C130 8.28184 129.567 6.66489 128.803 5.25246L85.68 41.4373ZM0 10C0 8.3792 0.38559 6.84847 1.07005 5.49453L44.1204 41.618L1.12531 84.6131C0.40638 83.2329 0 81.6639 0 80V10Z"/>
</svg>
